<svg width="64" height="64" viewBox="0 0 64 64" fill="none" xmlns="http://www.w3.org/2000/svg">
<path d="M26.6402 44.0003L24.0402 45.2643C18.7602 46.7256 16.1175 47.4563 14.6935 45.9176C13.2695 44.3816 14.0055 41.5976 15.4802 36.0243L15.8588 34.5843C16.2775 32.9976 16.4882 32.2083 16.3842 31.4216C16.2775 30.6376 15.8695 29.947 15.0535 28.5683L14.3122 27.315C11.4402 22.459 10.0055 20.0323 10.9602 18.099C11.9202 16.1683 14.6375 16.011 20.0748 15.699L21.4802 15.619C23.0268 15.5283 23.7975 15.4856 24.4722 15.1256C25.1442 14.7656 25.6428 14.1336 26.6402 12.8643L27.5468 11.7123C31.0562 7.25098 32.8108 5.02165 34.8268 5.36565C36.8428 5.70965 37.7868 8.39765 39.6722 13.7763L40.1602 15.1683C40.6962 16.6963 40.9655 17.4616 41.4855 18.0216C42.0082 18.587 42.7228 18.8856 44.1548 19.4803L45.4588 20.0243C50.4988 22.1203 53.0188 23.171 53.3042 25.3123C53.5495 27.1416 52.0322 28.7336 48.9308 31.419" stroke="white" stroke-opacity="0.87" stroke-width="1.5"/>
<path d="M40.6719 28.5039C38.0399 25.3572 36.7252 23.7839 35.2105 24.0239C33.6985 24.2666 32.9919 26.1652 31.5785 29.9626L31.2105 30.9439C30.8105 32.0239 30.6079 32.5626 30.2159 32.9599C29.8265 33.3572 29.2879 33.5679 28.2159 33.9892L27.2372 34.3706C23.4585 35.8506 21.5679 36.5919 21.3519 38.1039C21.1385 39.6159 22.7385 40.9012 25.9412 43.4666L26.7679 44.1332C27.6799 44.8612 28.1359 45.2266 28.3972 45.7252C28.6639 46.2239 28.7039 46.8026 28.7865 47.9572L28.8639 49.0079C29.1572 53.0692 29.3065 55.1012 30.6852 55.7946C32.0639 56.4879 33.7625 55.3812 37.1572 53.1732L38.0345 52.5999C38.9999 51.9732 39.4825 51.6586 40.0345 51.5679C40.5892 51.4799 41.1545 51.6266 42.2772 51.9199L43.3039 52.1866C47.2639 53.2159 49.2452 53.7332 50.3145 52.6479C51.3812 51.5626 50.8292 49.5972 49.7252 45.6612L49.4372 44.6479C49.1252 43.5279 48.9679 42.9679 49.0452 42.4159C49.1252 41.8612 49.4319 41.3759 50.0425 40.3999L50.6025 39.5146C52.7545 36.0879 53.8292 34.3759 53.1092 33.0132C52.3919 31.6506 50.3545 31.5386 46.2772 31.3199L45.2212 31.2612C44.0639 31.1999 43.4825 31.1679 42.9785 30.9146C42.4719 30.6612 42.0985 30.2132 41.3519 29.3172L40.6719 28.5039Z" stroke="white" stroke-opacity="0.87" stroke-width="1.5"/>
</svg>
