<svg width="34" height="34" viewBox="0 0 34 34" fill="none" xmlns="http://www.w3.org/2000/svg">
<path d="M22.668 22.9639L22.668 11.0355C22.6687 10.5646 22.536 10.1031 22.2853 9.7045C22.0346 9.30587 21.6761 8.98638 21.2513 8.78303C20.7474 8.54499 20.1867 8.4533 19.6331 8.51843C19.0796 8.58355 18.5555 8.80286 18.1205 9.15137L10.8955 15.1155C10.6254 15.3496 10.4089 15.639 10.2604 15.9641C10.112 16.2891 10.0352 16.6423 10.0352 16.9997C10.0352 17.3571 10.112 17.7103 10.2604 18.0354C10.4089 18.3604 10.6254 18.6498 10.8955 18.8839L18.1205 24.848C18.5555 25.1965 19.0796 25.4159 19.6331 25.481C20.1867 25.5461 20.7474 25.4544 21.2513 25.2164C21.6761 25.013 22.0346 24.6935 22.2853 24.2949C22.536 23.8963 22.6687 23.4348 22.668 22.9639Z" fill="white"/>
</svg>
