<svg width="36" height="47" viewBox="0 0 36 47" fill="none"
                                            xmlns="http://www.w3.org/2000/svg">
                                            <path
                                                d="M15.225 0.550781C15.0844 0.220313 14.7563 0 14.3906 0H12.6094C12.2437 0 11.9062 0.220313 11.775 0.550781L9.83438 5.29668C9.53438 6.03105 8.46562 6.03105 8.16562 5.29668L6.225 0.550781C6.08438 0.220313 5.75625 0 5.39062 0H4.5C2.01562 0 0 1.97363 0 4.40625V13.5C0 19.0228 4.47715 23.5 10 23.5H26C31.5228 23.5 36 19.0228 36 13.5V4.40625C36 1.97363 33.9844 0 31.5 0H21.6094C21.2437 0 20.9062 0.220313 20.775 0.550781L18.8344 5.29668C18.5344 6.03105 17.4656 6.03105 17.1656 5.29668L15.225 0.550781ZM2.9375 26.4375C1.31516 26.4375 0 27.7527 0 29.375C0 32.6154 2.69063 35.25 6 35.25H6.125C9.36967 35.25 12 37.8803 12 41.125C12 44.3654 14.6906 47 18 47C21.3094 47 24 44.3654 24 41.125C24 37.8803 26.6303 35.25 29.875 35.25H30C33.3094 35.25 36 32.6154 36 29.375C36 27.7527 34.6848 26.4375 33.0625 26.4375H2.9375ZM18 39.6562C18.3978 39.6562 18.7794 39.811 19.0607 40.0864C19.342 40.3619 19.5 40.7355 19.5 41.125C19.5 41.5145 19.342 41.8881 19.0607 42.1636C18.7794 42.439 18.3978 42.5938 18 42.5938C17.6022 42.5938 17.2206 42.439 16.9393 42.1636C16.658 41.8881 16.5 41.5145 16.5 41.125C16.5 40.7355 16.658 40.3619 16.9393 40.0864C17.2206 39.811 17.6022 39.6562 18 39.6562Z"
                                                fill="white" />
                                        </svg>