<svg width="24" height="24" viewBox="0 0 24 24" fill="none" xmlns="http://www.w3.org/2000/svg">
<path d="M2.45395 7.9387C2.73524 7.65749 3.1167 7.49952 3.51445 7.49952C3.9122 7.49952 4.29366 7.65749 4.57495 7.9387L12 15.3637L19.4249 7.9387C19.7079 7.66546 20.0868 7.51427 20.4801 7.51769C20.8733 7.5211 21.2496 7.67886 21.5277 7.95697C21.8058 8.23508 21.9635 8.6113 21.967 9.0046C21.9704 9.39789 21.8192 9.77679 21.5459 10.0597L13.0604 18.5452C12.7792 18.8264 12.3977 18.9844 12 18.9844C11.6022 18.9844 11.2207 18.8264 10.9395 18.5452L2.45395 10.0597C2.17274 9.77841 2.01477 9.39694 2.01477 8.9992C2.01477 8.60145 2.17274 8.21999 2.45395 7.9387Z" fill="white" fill-opacity="0.57"/>
</svg>
