<svg width="13" height="18" viewBox="0 0 13 18" fill="none" xmlns="http://www.w3.org/2000/svg">
<path d="M0.332967 14.9639L0.332968 3.03553C0.332286 2.56462 0.464981 2.10313 0.715693 1.7045C0.966406 1.30587 1.32488 0.986385 1.74963 0.783034C2.2536 0.544988 2.81431 0.453302 3.36785 0.518425C3.92139 0.583548 4.44551 0.802859 4.88047 1.15137L12.1055 7.11553C12.3755 7.34959 12.5921 7.63897 12.7406 7.96405C12.889 8.28913 12.9658 8.64233 12.9658 8.9997C12.9658 9.35707 12.889 9.71027 12.7406 10.0354C12.5921 10.3604 12.3755 10.6498 12.1055 10.8839L4.88047 16.848C4.44551 17.1965 3.92139 17.4159 3.36785 17.481C2.8143 17.5461 2.2536 17.4544 1.74963 17.2164C1.32488 17.013 0.966405 16.6935 0.715693 16.2949C0.46498 15.8963 0.332285 15.4348 0.332967 14.9639Z" fill="white"/>
</svg>
