<svg width="64" height="64" viewBox="0 0 64 64" fill="none" xmlns="http://www.w3.org/2000/svg">
<path d="M56 40V32C56 28.8483 55.3792 25.7274 54.1731 22.8156C52.967 19.9038 51.1992 17.258 48.9706 15.0294C46.742 12.8008 44.0962 11.033 41.1844 9.82689C38.2726 8.62078 35.1517 8 32 8C28.8483 8 25.7274 8.62078 22.8156 9.82689C19.9038 11.033 17.258 12.8008 15.0294 15.0294C12.8008 17.258 11.033 19.9038 9.82689 22.8156C8.62078 25.7274 8 28.8483 8 32V40" stroke="white" stroke-opacity="0.87" stroke-width="2" stroke-linecap="round"/>
<path d="M8.00033 40.0003V38.667H6.66699V40.0003H8.00033ZM8.00033 41.3337H16.0003V38.667H8.00033V41.3337ZM17.3337 42.667V50.667H20.0003V42.667H17.3337ZM9.33366 50.667V40.0003H6.66699V50.667H9.33366ZM13.3337 54.667C12.2728 54.667 11.2554 54.2456 10.5052 53.4954C9.75509 52.7453 9.33366 51.7279 9.33366 50.667H6.66699C6.66699 52.4351 7.36937 54.1308 8.61961 55.381C9.86986 56.6313 11.5655 57.3337 13.3337 57.3337V54.667ZM17.3337 50.667C17.3337 51.7279 16.9122 52.7453 16.1621 53.4954C15.4119 54.2456 14.3945 54.667 13.3337 54.667V57.3337C15.1018 57.3337 16.7975 56.6313 18.0477 55.381C19.2979 54.1308 20.0003 52.4351 20.0003 50.667H17.3337ZM16.0003 41.3337C16.3539 41.3337 16.6931 41.4741 16.9431 41.7242C17.1932 41.9742 17.3337 42.3134 17.3337 42.667H20.0003C20.0003 41.6061 19.5789 40.5887 18.8288 39.8386C18.0786 39.0884 17.0612 38.667 16.0003 38.667V41.3337ZM56.0003 40.0003H57.3337V38.667H56.0003V40.0003ZM48.0003 41.3337H56.0003V38.667H48.0003V41.3337ZM54.667 40.0003V50.667H57.3337V40.0003H54.667ZM46.667 50.667V42.667H44.0003V50.667H46.667ZM50.667 54.667C49.6061 54.667 48.5887 54.2456 47.8386 53.4954C47.0884 52.7453 46.667 51.7279 46.667 50.667H44.0003C44.0003 52.4351 44.7027 54.1308 45.9529 55.381C47.2032 56.6313 48.8989 57.3337 50.667 57.3337V54.667ZM54.667 50.667C54.667 51.7279 54.2456 52.7453 53.4954 53.4954C52.7453 54.2456 51.7279 54.667 50.667 54.667V57.3337C52.4351 57.3337 54.1308 56.6313 55.381 55.381C56.6313 54.1308 57.3337 52.4351 57.3337 50.667H54.667ZM48.0003 38.667C46.9395 38.667 45.922 39.0884 45.1719 39.8386C44.4218 40.5887 44.0003 41.6061 44.0003 42.667H46.667C46.667 42.3134 46.8075 41.9742 47.0575 41.7242C47.3076 41.4741 47.6467 41.3337 48.0003 41.3337V38.667Z" fill="white" fill-opacity="0.87"/>
</svg>
