<svg width="13" height="18" viewBox="0 0 13 18" fill="none" xmlns="http://www.w3.org/2000/svg">
<path d="M12.667 14.9639L12.667 3.03553C12.6677 2.56462 12.535 2.10313 12.2843 1.7045C12.0336 1.30587 11.6751 0.986385 11.2504 0.783034C10.7464 0.544988 10.1857 0.453302 9.63215 0.518425C9.07861 0.583548 8.55449 0.802859 8.11953 1.15137L0.894532 7.11553C0.624473 7.34959 0.407885 7.63897 0.259444 7.96405C0.111004 8.28913 0.03418 8.64233 0.0341801 8.9997C0.0341801 9.35707 0.111004 9.71027 0.259444 10.0354C0.407885 10.3604 0.624473 10.6498 0.894532 10.8839L8.11953 16.848C8.55449 17.1965 9.07861 17.4159 9.63215 17.481C10.1857 17.5461 10.7464 17.4544 11.2504 17.2164C11.6751 17.013 12.0336 16.6935 12.2843 16.2949C12.535 15.8963 12.6677 15.4348 12.667 14.9639Z" fill="white" fill-opacity="0.57"/>
</svg>
