<svg width="64" height="64" viewBox="0 0 64 64" fill="none" xmlns="http://www.w3.org/2000/svg">
<path d="M48.1278 32.0623C49.1536 32.0623 49.9852 31.2308 49.9852 30.205C49.9852 29.1792 49.1536 28.3477 48.1278 28.3477C47.1021 28.3477 46.2705 29.1792 46.2705 30.205C46.2705 31.2308 47.1021 32.0623 48.1278 32.0623Z" stroke="white" stroke-opacity="0.87" stroke-linecap="round" stroke-linejoin="round"/>
<path d="M53.6297 37.9811C54.861 37.9811 55.8591 36.983 55.8591 35.7518C55.8591 34.5206 54.861 33.5225 53.6297 33.5225C52.3985 33.5225 51.4004 34.5206 51.4004 35.7518C51.4004 36.983 52.3985 37.9811 53.6297 37.9811Z" stroke="white" stroke-opacity="0.87" stroke-linecap="round" stroke-linejoin="round"/>
<path d="M16.2839 13.9531L31.3559 16.5931M20.7292 19.3011L30.5225 21.0371M17.8825 23.1198L29.8279 25.2038M38.5999 42.6611L38.2305 38.1225C37.3052 31.9825 30.2145 30.4918 28.0212 36.4211C25.5932 41.4398 16.9372 46.1291 7.46387 47.2891C11.2812 59.6171 31.6905 57.1905 34.4812 53.6091" stroke="white" stroke-opacity="0.87" stroke-linecap="round" stroke-linejoin="round"/>
<path d="M12.3948 23.2089V25.2222M12.3948 28.3596V30.3729M14.0335 26.7916L16.0468 26.8609M8.88281 26.8609H10.8961M18.7615 37.2556L20.1361 38.7289M20.1361 33.5649L18.7121 34.9889M15.0708 33.6622L16.4948 35.0862M16.4948 37.2062L15.0708 38.6302M28.0215 36.4209C31.1255 39.0076 34.6068 39.0542 38.2308 38.1222M14.6375 54.8462C22.2295 52.2729 26.9295 48.9756 29.5495 45.1369M29.4801 51.3182C27.9921 53.3769 26.1855 55.0849 23.1255 56.4889M9.46815 51.0796C13.7908 50.9596 17.1708 49.4582 20.4521 47.7756M31.6161 32.8209L35.9041 9.9249C36.5015 5.96224 41.1681 7.09957 40.2628 10.6889L35.7775 33.7196M35.9388 46.3862C29.2975 50.1569 35.6121 56.4782 39.4121 54.0262C42.1735 57.7276 48.0375 57.0262 49.4121 54.2342C57.2601 57.7356 59.0628 46.8036 52.6082 45.8316C51.1735 40.8169 45.9841 39.9476 42.8841 42.9836C40.2348 42.3302 37.5121 41.2956 35.9388 46.3862Z" stroke="white" stroke-opacity="0.87" stroke-linecap="round" stroke-linejoin="round"/>
</svg>
